<svg xmlns="http://www.w3.org/2000/svg" fill="#25D366" viewBox="0 0 24 24" width="32" height="32">
  <path d="M12 2C6.48 2 2 6.48 2 12a9.93 9.93 0 001.63 5.5L2 22l4.72-1.56A9.97 9.97 0 0012 22c5.52 0 10-4.48 10-10S17.52 2 12 2zm0 18a7.95 7.95 0 01-4.28-1.24l-.31-.2-2.81.93.93-2.81-.2-.31A7.95 7.95 0 114 12c0 4.42 3.58 8 8 8zm3.89-5.47l-.67-.33c-.18-.09-1.05-.52-1.21-.58-.16-.06-.28-.09-.4.09-.12.18-.46.58-.56.7-.1.12-.21.13-.39.04-.18-.09-.77-.28-1.48-.91a5.5 5.5 0 01-1.02-1.26c-.1-.18 0-.28.08-.37.08-.09.18-.21.27-.31.09-.1.12-.18.18-.3.06-.12.03-.23-.01-.32-.04-.09-.4-.97-.55-1.33-.15-.36-.3-.31-.41-.32h-.35c-.12 0-.3.04-.46.23-.16.18-.61.6-.61 1.47s.62 1.7.7 1.81c.09.12 1.21 1.86 2.94 2.61.41.18.73.29.98.37.41.13.79.11 1.08.07.33-.05 1.05-.43 1.2-.84.15-.42.15-.78.1-.85-.06-.07-.18-.11-.37-.2z"/>
</svg>
